<svg xmlns="http://www.w3.org/2000/svg" xmlns:xlink="http://www.w3.org/1999/xlink" version="1.1" class="marks" width="1200" height="800" viewBox="0 0 1200 800"><g fill="none" stroke-miterlimit="10" transform="translate(0,0)"><g class="mark-group role-frame root" role="graphics-object" aria-roledescription="group mark container"><g transform="translate(0,0)"><path class="background" aria-hidden="true" d="M0,0h1200v800h-1200Z"/><g><g class="mark-path role-mark links" role="graphics-symbol" aria-roledescription="path mark container" pointer-events="none"><path transform="translate(0,0)" d="M571.9960222177333,382.9090717739769L496.58360235227275,410.5445934970215" stroke="#ccc" stroke-width="0.5"/><path transform="translate(0,0)" d="M571.9960222177333,382.9090717739769L742.0188782925276,354.88429345825466" stroke="#ccc" stroke-width="0.5"/><path transform="translate(0,0)" d="M571.9960222177333,382.9090717739769L618.5407895074983,414.7502217703855" stroke="#ccc" stroke-width="0.5"/><path transform="translate(0,0)" d="M571.9960222177333,382.9090717739769L587.5577301210197,335.40859203999753" stroke="#ccc" stroke-width="0.5"/><path transform="translate(0,0)" d="M571.9960222177333,382.9090717739769L586.4519137945083,370.79052501278886" stroke="#ccc" stroke-width="0.5"/><path transform="translate(0,0)" d="M571.9960222177333,382.9090717739769L518.4898096555163,501.6389815722723" stroke="#ccc" stroke-width="0.5"/><path transform="translate(0,0)" d="M571.9960222177333,382.9090717739769L432.287998484916,223.10313060808164" stroke="#ccc" stroke-width="0.5"/><path transform="translate(0,0)" d="M571.9960222177333,382.9090717739769L694.1879555095385,437.8934151281282" stroke="#ccc" stroke-width="0.5"/><path transform="translate(0,0)" d="M571.9960222177333,382.9090717739769L483.72957889859356,407.04072659308366" stroke="#ccc" stroke-width="0.5"/><path transform="translate(0,0)" d="M571.9960222177333,382.9090717739769L571.4012785776604,426.49387587774817" stroke="#ccc" stroke-width="0.5"/><path transform="translate(0,0)" d="M496.58360235227275,410.5445934970215L508.27506521734665,451.4507048929306" stroke="#ccc" stroke-width="0.5"/><path transform="translate(0,0)" d="M496.58360235227275,410.5445934970215L432.0646112613652,419.81308317548" stroke="#ccc" stroke-width="0.5"/><path transform="translate(0,0)" d="M496.58360235227275,410.5445934970215L515.8544841940515,425.71739838888243" stroke="#ccc" stroke-width="0.5"/><path transform="translate(0,0)" d="M742.0188782925276,354.88429345825466L752.7117877610559,362.83073773487314" stroke="#ccc" stroke-width="0.5"/><path transform="translate(0,0)" d="M742.0188782925276,354.88429345825466L743.5680582111535,341.592476300639" stroke="#ccc" stroke-width="0.5"/><path transform="translate(0,0)" d="M742.0188782925276,354.88429345825466L828.4261238252154,359.8705586578724" stroke="#ccc" stroke-width="0.5"/><path transform="translate(0,0)" d="M742.0188782925276,354.88429345825466L764.9376019565456,357.5391772938394" stroke="#ccc" stroke-width="0.5"/><path transform="translate(0,0)" d="M742.0188782925276,354.88429345825466L754.2475827903012,349.58301197807674" stroke="#ccc" stroke-width="0.5"/><path transform="translate(0,0)" d="M742.0188782925276,354.88429345825466L729.7975388918913,360.20249711753814" stroke="#ccc" stroke-width="0.5"/><path transform="translate(0,0)" d="M742.0188782925276,354.88429345825466L751.1997425475688,376.0731517842689" stroke="#ccc" stroke-width="0.5"/><path transform="translate(0,0)" d="M742.0188782925276,354.88429345825466L755.8041695282899,336.3451361880558" stroke="#ccc" stroke-width="0.5"/><path transform="translate(0,0)" d="M742.0188782925276,354.88429345825466L763.4170974000889,370.76502845099435" stroke="#ccc" stroke-width="0.5"/><path transform="translate(0,0)" d="M742.0188782925276,354.88429345825466L731.346096369477,346.89590880829894" stroke="#ccc" stroke-width="0.5"/><path transform="translate(0,0)" d="M742.0188782925276,354.88429345825466L766.481583558073,344.31305567526596" stroke="#ccc" stroke-width="0.5"/><path transform="translate(0,0)" d="M742.0188782925276,354.88429345825466L740.4922336292623,368.15214133530753" stroke="#ccc" stroke-width="0.5"/><path transform="translate(0,0)" d="M618.5407895074983,414.7502217703855L648.9172525923644,457.694361078051" stroke="#ccc" stroke-width="0.5"/><path transform="translate(0,0)" d="M618.5407895074983,414.7502217703855L640.4230981503046,429.9444664461624" stroke="#ccc" stroke-width="0.5"/><path transform="translate(0,0)" d="M618.5407895074983,414.7502217703855L630.5978942109167,409.07186301200716" stroke="#ccc" stroke-width="0.5"/><path transform="translate(0,0)" d="M618.5407895074983,414.7502217703855L619.6594862095147,401.4894948700155" stroke="#ccc" stroke-width="0.5"/><path transform="translate(0,0)" d="M618.5407895074983,414.7502217703855L606.3615349995479,435.40480765868165" stroke="#ccc" stroke-width="0.5"/><path transform="translate(0,0)" d="M618.5407895074983,414.7502217703855L628.3706087507843,435.6222290790838" stroke="#ccc" stroke-width="0.5"/><path transform="translate(0,0)" d="M618.5407895074983,414.7502217703855L607.731088332321,395.5550766682593" stroke="#ccc" stroke-width="0.5"/><path transform="translate(0,0)" d="M618.5407895074983,414.7502217703855L629.4905276418493,422.3421894382476" stroke="#ccc" stroke-width="0.5"/><path transform="translate(0,0)" d="M618.5407895074983,414.7502217703855L605.4854479923341,422.10822742509447" stroke="#ccc" stroke-width="0.5"/><path transform="translate(0,0)" d="M618.5407895074983,414.7502217703855L631.7044666247328,395.7963448368983" stroke="#ccc" stroke-width="0.5"/><path transform="translate(0,0)" d="M618.5407895074983,414.7502217703855L641.5394769509794,416.6719169477662" stroke="#ccc" stroke-width="0.5"/><path transform="translate(0,0)" d="M618.5407895074983,414.7502217703855L606.599559165809,408.82640258704635" stroke="#ccc" stroke-width="0.5"/><path transform="translate(0,0)" d="M618.5407895074983,414.7502217703855L660.772182470275,388.2552186603051" stroke="#ccc" stroke-width="0.5"/><path transform="translate(0,0)" d="M618.5407895074983,414.7502217703855L617.4338627249947,428.0170000501705" stroke="#ccc" stroke-width="0.5"/><path transform="translate(0,0)" d="M618.5407895074983,414.7502217703855L620.7500829037359,388.216147907037" stroke="#ccc" stroke-width="0.5"/><path transform="translate(0,0)" d="M618.5407895074983,414.7502217703855L642.644368175192,403.3946077083117" stroke="#ccc" stroke-width="0.5"/><path transform="translate(0,0)" d="M587.5577301210197,335.40859203999753L597.1824220478659,318.1843571398355" stroke="#ccc" stroke-width="0.5"/><path transform="translate(0,0)" d="M587.5577301210197,335.40859203999753L575.5855349019402,327.2641917864522" stroke="#ccc" stroke-width="0.5"/><path transform="translate(0,0)" d="M587.5577301210197,335.40859203999753L583.9231375557533,316.86624019108035" stroke="#ccc" stroke-width="0.5"/><path transform="translate(0,0)" d="M587.5577301210197,335.40859203999753L602.5633716740548,330.3757870811581" stroke="#ccc" stroke-width="0.5"/><path transform="translate(0,0)" d="M586.4519137945083,370.79052501278886L600.0658492720571,374.1929825924037" stroke="#ccc" stroke-width="0.5"/><path transform="translate(0,0)" d="M518.4898096555163,501.6389815722723L495.48026791262265,508.20166886049407" stroke="#ccc" stroke-width="0.5"/><path transform="translate(0,0)" d="M518.4898096555163,501.6389815722723L525.0116611190123,527.4548244491486" stroke="#ccc" stroke-width="0.5"/><path transform="translate(0,0)" d="M518.4898096555163,501.6389815722723L508.40056966316286,511.4348835386557" stroke="#ccc" stroke-width="0.5"/><path transform="translate(0,0)" d="M518.4898096555163,501.6389815722723L504.746990186848,498.62469115936096" stroke="#ccc" stroke-width="0.5"/><path transform="translate(0,0)" d="M518.4898096555163,501.6389815722723L521.3227352198559,514.6584402006933" stroke="#ccc" stroke-width="0.5"/><path transform="translate(0,0)" d="M518.4898096555163,501.6389815722723L499.15250449570175,521.0135767716177" stroke="#ccc" stroke-width="0.5"/><path transform="translate(0,0)" d="M518.4898096555163,501.6389815722723L534.2611540959416,517.821183389839" stroke="#ccc" stroke-width="0.5"/><path transform="translate(0,0)" d="M518.4898096555163,501.6389815722723L512.0785913649622,524.2468994028104" stroke="#ccc" stroke-width="0.5"/><path transform="translate(0,0)" d="M432.287998484916,223.10313060808164L416.6912237780946,240.1189097099128" stroke="#ccc" stroke-width="0.5"/><path transform="translate(0,0)" d="M432.287998484916,223.10313060808164L448.97305321838917,254.05510416719846" stroke="#ccc" stroke-width="0.5"/><path transform="translate(0,0)" d="M432.287998484916,223.10313060808164L429.3831752841045,236.08682033838394" stroke="#ccc" stroke-width="0.5"/><path transform="translate(0,0)" d="M432.287998484916,223.10313060808164L406.8836854999286,231.12571653994408" stroke="#ccc" stroke-width="0.5"/><path transform="translate(0,0)" d="M432.287998484916,223.10313060808164L447.87857062944516,206.11584501867296" stroke="#ccc" stroke-width="0.5"/><path transform="translate(0,0)" d="M432.287998484916,223.10313060808164L451.8783636372624,241.05816473227276" stroke="#ccc" stroke-width="0.5"/><path transform="translate(0,0)" d="M432.287998484916,223.10313060808164L444.9787248543776,219.08465626746155" stroke="#ccc" stroke-width="0.5"/><path transform="translate(0,0)" d="M432.287998484916,223.10313060808164L461.66652243982696,250.03887018350756" stroke="#ccc" stroke-width="0.5"/><path transform="translate(0,0)" d="M432.287998484916,223.10313060808164L467.4956497183353,224.0923170298705" stroke="#ccc" stroke-width="0.5"/><path transform="translate(0,0)" d="M432.287998484916,223.10313060808164L457.66515490395426,215.10344062440393" stroke="#ccc" stroke-width="0.5"/><path transform="translate(0,0)" d="M432.287998484916,223.10313060808164L470.3732841726374,211.11232072743138" stroke="#ccc" stroke-width="0.5"/><path transform="translate(0,0)" d="M432.287998484916,223.10313060808164L460.57649775221194,202.12286397434926" stroke="#ccc" stroke-width="0.5"/><path transform="translate(0,0)" d="M432.287998484916,223.10313060808164L450.77404605835926,193.14293631111605" stroke="#ccc" stroke-width="0.5"/><path transform="translate(0,0)" d="M432.287998484916,223.10313060808164L419.5868573412659,227.12114218621474" stroke="#ccc" stroke-width="0.5"/><path transform="translate(0,0)" d="M432.287998484916,223.10313060808164L464.58426492196264,237.07129758055152" stroke="#ccc" stroke-width="0.5"/><path transform="translate(0,0)" d="M432.287998484916,223.10313060808164L440.9560163070788,184.15348062556478" stroke="#ccc" stroke-width="0.5"/><path transform="translate(0,0)" d="M432.287998484916,223.10313060808164L426.51004983629866,249.09753896465844" stroke="#ccc" stroke-width="0.5"/><path transform="translate(0,0)" d="M432.287998484916,223.10313060808164L428.2607345692232,188.14592007694787" stroke="#ccc" stroke-width="0.5"/><path transform="translate(0,0)" d="M432.287998484916,223.10313060808164L505.3817386175989,105.44436823047126" stroke="#ccc" stroke-width="0.5"/><path transform="translate(0,0)" d="M432.287998484916,223.10313060808164L454.77573108803165,228.07793802874454" stroke="#ccc" stroke-width="0.5"/><path transform="translate(0,0)" d="M432.287998484916,223.10313060808164L439.1964773905265,245.07205908271484" stroke="#ccc" stroke-width="0.5"/><path transform="translate(0,0)" d="M432.287998484916,223.10313060808164L415.56202457340237,192.1552112172128" stroke="#ccc" stroke-width="0.5"/><path transform="translate(0,0)" d="M432.287998484916,223.10313060808164L409.76184323633333,218.13194978960638" stroke="#ccc" stroke-width="0.5"/><path transform="translate(0,0)" d="M432.287998484916,223.10313060808164L435.1900095898601,210.140617807502" stroke="#ccc" stroke-width="0.5"/><path transform="translate(0,0)" d="M432.287998484916,223.10313060808164L425.3718723311186,201.13003088930506" stroke="#ccc" stroke-width="0.5"/><path transform="translate(0,0)" d="M432.287998484916,223.10313060808164L442.07545979036524,232.07240362919626" stroke="#ccc" stroke-width="0.5"/><path transform="translate(0,0)" d="M432.287998484916,223.10313060808164L422.46919990534616,214.1286752448755" stroke="#ccc" stroke-width="0.5"/><path transform="translate(0,0)" d="M432.287998484916,223.10313060808164L438.07234330325457,197.14143588385994" stroke="#ccc" stroke-width="0.5"/><path transform="translate(0,0)" d="M432.287998484916,223.10313060808164L412.65680927060646,205.13286879487634" stroke="#ccc" stroke-width="0.5"/><path transform="translate(0,0)" d="M694.1879555095385,437.8934151281282L706.7056630704772,442.62747551012984" stroke="#ccc" stroke-width="0.5"/><path transform="translate(0,0)" d="M694.1879555095385,437.8934151281282L692.1681519571957,424.71797245691397" stroke="#ccc" stroke-width="0.5"/><path transform="translate(0,0)" d="M694.1879555095385,437.8934151281282L717.0552069496459,434.2316450297541" stroke="#ccc" stroke-width="0.5"/><path transform="translate(0,0)" d="M694.1879555095385,437.8934151281282L686.0369445355688,459.44976897525527" stroke="#ccc" stroke-width="0.5"/><path transform="translate(0,0)" d="M694.1879555095385,437.8934151281282L683.8518219428476,446.3070879944449" stroke="#ccc" stroke-width="0.5"/><path transform="translate(0,0)" d="M694.1879555095385,437.8934151281282L719.1518500582382,447.3832271578066" stroke="#ccc" stroke-width="0.5"/><path transform="translate(0,0)" d="M694.1879555095385,437.8934151281282L696.371478434155,451.03755441285483" stroke="#ccc" stroke-width="0.5"/><path transform="translate(0,0)" d="M694.1879555095385,437.8934151281282L704.6204335226768,429.4611545028339" stroke="#ccc" stroke-width="0.5"/><path transform="translate(0,0)" d="M694.1879555095385,437.8934151281282L708.8239312472863,455.78559152591777" stroke="#ccc" stroke-width="0.5"/><path transform="translate(0,0)" d="M694.1879555095385,437.8934151281282L698.4880871166636,464.1908686488915" stroke="#ccc" stroke-width="0.5"/><path transform="translate(0,0)" d="M483.72957889859356,407.04072659308366L502.6421424792041,388.2779151340271" stroke="#ccc" stroke-width="0.5"/><path transform="translate(0,0)" d="M483.72957889859356,407.04072659308366L487.10807268545955,419.9081766568254" stroke="#ccc" stroke-width="0.5"/><path transform="translate(0,0)" d="M483.72957889859356,407.04072659308366L506.0362985994273,401.1581511847156" stroke="#ccc" stroke-width="0.5"/><path transform="translate(0,0)" d="M483.72957889859356,407.04072659308366L509.4154313581559,414.04249470281405" stroke="#ccc" stroke-width="0.5"/><path transform="translate(0,0)" d="M483.72957889859356,407.04072659308366L489.89594301104074,432.9229874646761" stroke="#ccc" stroke-width="0.5"/><path transform="translate(0,0)" d="M483.72957889859356,407.04072659308366L476.9387483660666,381.3080646963697" stroke="#ccc" stroke-width="0.5"/><path transform="translate(0,0)" d="M483.72957889859356,407.04072659308366L462.3137909978257,429.9796887233886" stroke="#ccc" stroke-width="0.5"/><path transform="translate(0,0)" d="M483.72957889859356,407.04072659308366L477.0392001619357,429.44011439480994" stroke="#ccc" stroke-width="0.5"/><path transform="translate(0,0)" d="M483.72957889859356,407.04072659308366L480.3282738112348,394.17507129157286" stroke="#ccc" stroke-width="0.5"/><path transform="translate(0,0)" d="M483.72957889859356,407.04072659308366L461.40558332442254,412.9481263775479" stroke="#ccc" stroke-width="0.5"/><path transform="translate(0,0)" d="M483.72957889859356,407.04072659308366L444.6069320960791,395.8892280657629" stroke="#ccc" stroke-width="0.5"/><path transform="translate(0,0)" d="M483.72957889859356,407.04072659308366L499.95295863822446,423.427041197432" stroke="#ccc" stroke-width="0.5"/><path transform="translate(0,0)" d="M483.72957889859356,407.04072659308366L470.8696116496703,403.55327827277245" stroke="#ccc" stroke-width="0.5"/><path transform="translate(0,0)" d="M483.72957889859356,407.04072659308366L501.3513161957065,369.12593169791336" stroke="#ccc" stroke-width="0.5"/><path transform="translate(0,0)" d="M483.72957889859356,407.04072659308366L493.1903872916903,397.67052375763944" stroke="#ccc" stroke-width="0.5"/><path transform="translate(0,0)" d="M483.72957889859356,407.04072659308366L467.4752925267922,390.67636468938105" stroke="#ccc" stroke-width="0.5"/><path transform="translate(0,0)" d="M483.72957889859356,407.04072659308366L489.78925233235634,384.7933819962685" stroke="#ccc" stroke-width="0.5"/><path transform="translate(0,0)" d="M483.72957889859356,407.04072659308366L474.26382857203333,416.4286634562632" stroke="#ccc" stroke-width="0.5"/><path transform="translate(0,0)" d="M483.72957889859356,407.04072659308366L458.02076059218024,400.06324576030323" stroke="#ccc" stroke-width="0.5"/><path transform="translate(0,0)" d="M571.4012785776604,426.49387587774817L488.02031045071163,369.21252686320025" stroke="#ccc" stroke-width="0.5"/><path transform="translate(0,0)" d="M571.4012785776604,426.49387587774817L655.6855769233603,350.5756044317363" stroke="#ccc" stroke-width="0.5"/><path transform="translate(0,0)" d="M571.4012785776604,426.49387587774817L618.5407895074983,414.7502217703855" stroke="#ccc" stroke-width="0.5"/><path transform="translate(0,0)" d="M571.4012785776604,426.49387587774817L546.2969535076667,467.65020854702516" stroke="#ccc" stroke-width="0.5"/><path transform="translate(0,0)" d="M571.4012785776604,426.49387587774817L559.0096739852659,385.89696055416096" stroke="#ccc" stroke-width="0.5"/><path transform="translate(0,0)" d="M571.4012785776604,426.49387587774817L544.2652364350943,587.208338835089" stroke="#ccc" stroke-width="0.5"/><path transform="translate(0,0)" d="M571.4012785776604,426.49387587774817L575.3047868739745,413.7461484340613" stroke="#ccc" stroke-width="0.5"/><path transform="translate(0,0)" d="M508.27506521734665,451.4507048929306L521.7386978059415,447.0472045743911" stroke="#ccc" stroke-width="0.5"/><path transform="translate(0,0)" d="M508.27506521734665,451.4507048929306L498.6271177724847,464.2180440214231" stroke="#ccc" stroke-width="0.5"/><path transform="translate(0,0)" d="M508.27506521734665,451.4507048929306L522.6783414146056,460.34241585685464" stroke="#ccc" stroke-width="0.5"/><path transform="translate(0,0)" d="M508.27506521734665,451.4507048929306L511.5133983079674,467.62415838696734" stroke="#ccc" stroke-width="0.5"/><path transform="translate(0,0)" d="M432.0646112613652,419.81308317548L418.75349812277136,420.32714177168293" stroke="#ccc" stroke-width="0.5"/><path transform="translate(0,0)" d="M432.0646112613652,419.81308317548L418.08432548071545,407.0170269228337" stroke="#ccc" stroke-width="0.5"/><path transform="translate(0,0)" d="M432.0646112613652,419.81308317548L406.8963958437362,414.2512346005108" stroke="#ccc" stroke-width="0.5"/><path transform="translate(0,0)" d="M432.0646112613652,419.81308317548L407.56733859806815,427.5608852154277" stroke="#ccc" stroke-width="0.5"/><path transform="translate(0,0)" d="M432.0646112613652,419.81308317548L419.4269860397145,433.6374793084004" stroke="#ccc" stroke-width="0.5"/><path transform="translate(0,0)" d="M515.8544841940515,425.71739838888243L529.5440379223655,431.7306538563473" stroke="#ccc" stroke-width="0.5"/><path transform="translate(0,0)" d="M828.4261238252154,359.8705586578724L841.125620615461,355.82564818658705" stroke="#ccc" stroke-width="0.5"/><path transform="translate(0,0)" d="M828.4261238252154,359.8705586578724L849.3896755860981,366.2831783359056" stroke="#ccc" stroke-width="0.5"/><path transform="translate(0,0)" d="M828.4261238252154,359.8705586578724L824.3972043916614,375.44495112748507" stroke="#ccc" stroke-width="0.5"/><path transform="translate(0,0)" d="M828.4261238252154,359.8705586578724L832.8890956221908,345.3428488527431" stroke="#ccc" stroke-width="0.5"/><path transform="translate(0,0)" d="M828.4261238252154,359.8705586578724L836.6952351438853,370.31594987223605" stroke="#ccc" stroke-width="0.5"/><path transform="translate(0,0)" d="M828.4261238252154,359.8705586578724L846.0688071781864,343.4472134640918" stroke="#ccc" stroke-width="0.5"/><path transform="translate(0,0)" d="M828.4261238252154,359.8705586578724L854.3128687823789,353.91387032132286" stroke="#ccc" stroke-width="0.5"/><path transform="translate(0,0)" d="M828.4261238252154,359.8705586578724L846.5276591572751,379.295429695457" stroke="#ccc" stroke-width="0.5"/><path transform="translate(0,0)" d="M828.4261238252154,359.8705586578724L820.1949172110569,349.3880103129311" stroke="#ccc" stroke-width="0.5"/><path transform="translate(0,0)" d="M648.9172525923644,457.694361078051L663.9761859111856,454.4439781747858" stroke="#ccc" stroke-width="0.5"/><path transform="translate(0,0)" d="M648.9172525923644,457.694361078051L650.6326035724004,470.9144660785215" stroke="#ccc" stroke-width="0.5"/><path transform="translate(0,0)" d="M648.9172525923644,457.694361078051L663.5855381410415,467.76387790784594" stroke="#ccc" stroke-width="0.5"/><path transform="translate(0,0)" d="M648.9172525923644,457.694361078051L659.8293987373643,480.5475368450611" stroke="#ccc" stroke-width="0.5"/><path transform="translate(0,0)" d="M648.9172525923644,457.694361078051L637.4030846657009,469.33388000662717" stroke="#ccc" stroke-width="0.5"/><path transform="translate(0,0)" d="M505.3817386175989,105.44436823047126L475.0611017685538,79.68046216887599" stroke="#ccc" stroke-width="0.5"/><path transform="translate(0,0)" d="M505.3817386175989,105.44436823047126L530.000345839368,95.35196314681903" stroke="#ccc" stroke-width="0.5"/><path transform="translate(0,0)" d="M505.3817386175989,105.44436823047126L526.4143911784439,121.74337092099223" stroke="#ccc" stroke-width="0.5"/><path transform="translate(0,0)" d="M505.3817386175989,105.44436823047126L501.7704787627179,131.81503555895168" stroke="#ccc" stroke-width="0.5"/><path transform="translate(0,0)" d="M505.3817386175989,105.44436823047126L484.4215506441784,89.07984194948625" stroke="#ccc" stroke-width="0.5"/><path transform="translate(0,0)" d="M505.3817386175989,105.44436823047126L493.089915231137,110.45079873906796" stroke="#ccc" stroke-width="0.5"/><path transform="translate(0,0)" d="M505.3817386175989,105.44436823047126L521.2091984847377,73.98984262547876" stroke="#ccc" stroke-width="0.5"/><path transform="translate(0,0)" d="M505.3817386175989,105.44436823047126L462.7462056886358,84.693862867277" stroke="#ccc" stroke-width="0.5"/><path transform="translate(0,0)" d="M505.3817386175989,105.44436823047126L531.7339748541557,82.14990026410167" stroke="#ccc" stroke-width="0.5"/><path transform="translate(0,0)" d="M505.3817386175989,105.44436823047126L514.0924611493124,126.77901401260534" stroke="#ccc" stroke-width="0.5"/><path transform="translate(0,0)" d="M505.3817386175989,105.44436823047126L476.9645399420246,66.50510806805943" stroke="#ccc" stroke-width="0.5"/><path transform="translate(0,0)" d="M505.3817386175989,105.44436823047126L507.18996664018374,92.27195420894525" stroke="#ccc" stroke-width="0.5"/><path transform="translate(0,0)" d="M505.3817386175989,105.44436823047126L491.2666315856688,123.63105412807538" stroke="#ccc" stroke-width="0.5"/><path transform="translate(0,0)" d="M505.3817386175989,105.44436823047126L496.7006261366248,84.15010752389837" stroke="#ccc" stroke-width="0.5"/><path transform="translate(0,0)" d="M505.3817386175989,105.44436823047126L472.1679646460006,94.06107529312817" stroke="#ccc" stroke-width="0.5"/><path transform="translate(0,0)" d="M505.3817386175989,105.44436823047126L499.66473957389144,69.53409510936888" stroke="#ccc" stroke-width="0.5"/><path transform="translate(0,0)" d="M505.3817386175989,105.44436823047126L528.2211167077862,108.54502606657601" stroke="#ccc" stroke-width="0.5"/><path transform="translate(0,0)" d="M505.3817386175989,105.44436823047126L494.909099223679,97.28416379903231" stroke="#ccc" stroke-width="0.5"/><path transform="translate(0,0)" d="M505.3817386175989,105.44436823047126L487.393204200631,74.69197991690145" stroke="#ccc" stroke-width="0.5"/><path transform="translate(0,0)" d="M505.3817386175989,105.44436823047126L459.83761015043876,99.03724398952322" stroke="#ccc" stroke-width="0.5"/><path transform="translate(0,0)" d="M505.3817386175989,105.44436823047126L468.43451841306035,120.46028450143108" stroke="#ccc" stroke-width="0.5"/><path transform="translate(0,0)" d="M505.3817386175989,105.44436823047126L517.6852870175413,100.39256448344025" stroke="#ccc" stroke-width="0.5"/><path transform="translate(0,0)" d="M505.3817386175989,105.44436823047126L480.7800075620233,115.47065103569653" stroke="#ccc" stroke-width="0.5"/><path transform="translate(0,0)" d="M505.3817386175989,105.44436823047126L457.97683285789026,112.23182256518105" stroke="#ccc" stroke-width="0.5"/><path transform="translate(0,0)" d="M505.3817386175989,105.44436823047126L470.29031544968734,107.26244745091617" stroke="#ccc" stroke-width="0.5"/><path transform="translate(0,0)" d="M505.3817386175989,105.44436823047126L482.6166375861837,102.27159806897728" stroke="#ccc" stroke-width="0.5"/><path transform="translate(0,0)" d="M505.3817386175989,105.44436823047126L508.95112622856544,79.04683615297118" stroke="#ccc" stroke-width="0.5"/><path transform="translate(0,0)" d="M505.3817386175989,105.44436823047126L489.44168866957284,136.81359250487418" stroke="#ccc" stroke-width="0.5"/><path transform="translate(0,0)" d="M505.3817386175989,105.44436823047126L503.5628634398194,118.62284639933678" stroke="#ccc" stroke-width="0.5"/><path transform="translate(0,0)" d="M505.3817386175989,105.44436823047126L519.4703652693873,87.20949230068224" stroke="#ccc" stroke-width="0.5"/><path transform="translate(0,0)" d="M505.3817386175989,105.44436823047126L478.93174443329997,128.63437569313032" stroke="#ccc" stroke-width="0.5"/><path transform="translate(0,0)" d="M505.3817386175989,105.44436823047126L515.8950592883734,113.58403493978626" stroke="#ccc" stroke-width="0.5"/><path transform="translate(0,0)" d="M462.3137909978257,429.9796887233886L457.7742718308819,446.94662608795824" stroke="#ccc" stroke-width="0.5"/><path transform="translate(0,0)" d="M462.3137909978257,429.9796887233886L446.96131567433,439.1521303408134" stroke="#ccc" stroke-width="0.5"/><path transform="translate(0,0)" d="M444.6069320960791,395.8892280657629L434.5349079583666,381.8996147868308" stroke="#ccc" stroke-width="0.5"/><path transform="translate(0,0)" d="M444.6069320960791,395.8892280657629L430.98580989476426,403.6656461740673" stroke="#ccc" stroke-width="0.5"/><path transform="translate(0,0)" d="M444.6069320960791,395.8892280657629L425.371656736089,391.57712617533934" stroke="#ccc" stroke-width="0.5"/><path transform="translate(0,0)" d="M501.3513161957065,369.12593169791336L515.1595321564142,365.81718727125013" stroke="#ccc" stroke-width="0.5"/><path transform="translate(0,0)" d="M501.3513161957065,369.12593169791336L494.61081314758763,357.6312047463554" stroke="#ccc" stroke-width="0.5"/><path transform="translate(0,0)" d="M501.3513161957065,369.12593169791336L499.81831462775096,345.3689795565265" stroke="#ccc" stroke-width="0.5"/><path transform="translate(0,0)" d="M501.3513161957065,369.12593169791336L510.5035302844499,353.3310409561011" stroke="#ccc" stroke-width="0.5"/><path transform="translate(0,0)" d="M488.02031045071163,369.21252686320025L485.2488645125071,348.15431682838204" stroke="#ccc" stroke-width="0.5"/><path transform="translate(0,0)" d="M488.02031045071163,369.21252686320025L477.8915560468218,359.28664025280693" stroke="#ccc" stroke-width="0.5"/><path transform="translate(0,0)" d="M488.02031045071163,369.21252686320025L471.9513631057791,347.36300561181525" stroke="#ccc" stroke-width="0.5"/><path transform="translate(0,0)" d="M488.02031045071163,369.21252686320025L464.0163494463465,358.06051921997846" stroke="#ccc" stroke-width="0.5"/><path transform="translate(0,0)" d="M488.02031045071163,369.21252686320025L469.9413335654468,369.9882028312021" stroke="#ccc" stroke-width="0.5"/><path transform="translate(0,0)" d="M655.6855769233603,350.5756044317363L648.1974399267456,328.7238021120364" stroke="#ccc" stroke-width="0.5"/><path transform="translate(0,0)" d="M655.6855769233603,350.5756044317363L658.2289443888708,337.5027350841909" stroke="#ccc" stroke-width="0.5"/><path transform="translate(0,0)" d="M655.6855769233603,350.5756044317363L660.8046782325256,324.44187391367853" stroke="#ccc" stroke-width="0.5"/><path transform="translate(0,0)" d="M655.6855769233603,350.5756044317363L673.434181820504,320.22244704878966" stroke="#ccc" stroke-width="0.5"/><path transform="translate(0,0)" d="M655.6855769233603,350.5756044317363L670.8595052267269,333.2874274563439" stroke="#ccc" stroke-width="0.5"/><path transform="translate(0,0)" d="M655.6855769233603,350.5756044317363L680.9173170909742,342.0471994424047" stroke="#ccc" stroke-width="0.5"/><path transform="translate(0,0)" d="M655.6855769233603,350.5756044317363L678.3729205534411,355.115290735499" stroke="#ccc" stroke-width="0.5"/><path transform="translate(0,0)" d="M655.6855769233603,350.5756044317363L665.772301593479,359.4449925517691" stroke="#ccc" stroke-width="0.5"/><path transform="translate(0,0)" d="M655.6855769233603,350.5756044317363L683.4652474678065,328.9880410269277" stroke="#ccc" stroke-width="0.5"/><path transform="translate(0,0)" d="M655.6855769233603,350.5756044317363L668.322828405069,346.36120008175936" stroke="#ccc" stroke-width="0.5"/><path transform="translate(0,0)" d="M655.6855769233603,350.5756044317363L645.619043864072,341.7926960406871" stroke="#ccc" stroke-width="0.5"/><path transform="translate(0,0)" d="M546.2969535076667,467.65020854702516L558.997168449953,471.70544509890124" stroke="#ccc" stroke-width="0.5"/><path transform="translate(0,0)" d="M546.2969535076667,467.65020854702516L552.0337572276995,483.0695082291265" stroke="#ccc" stroke-width="0.5"/><path transform="translate(0,0)" d="M546.2969535076667,467.65020854702516L530.8750393763602,475.4435262888465" stroke="#ccc" stroke-width="0.5"/><path transform="translate(0,0)" d="M546.2969535076667,467.65020854702516L539.0302136795516,485.98454076881524" stroke="#ccc" stroke-width="0.5"/><path transform="translate(0,0)" d="M559.0096739852659,385.89696055416096L548.7713151233727,374.834115062996" stroke="#ccc" stroke-width="0.5"/><path transform="translate(0,0)" d="M559.0096739852659,385.89696055416096L569.999252811903,369.7356198251917" stroke="#ccc" stroke-width="0.5"/><path transform="translate(0,0)" d="M559.0096739852659,385.89696055416096L557.5999929088803,364.8529945295389" stroke="#ccc" stroke-width="0.5"/><path transform="translate(0,0)" d="M544.2652364350943,587.208338835089L548.1223058912167,571.183854919072" stroke="#ccc" stroke-width="0.5"/><path transform="translate(0,0)" d="M544.2652364350943,587.208338835089L585.6599132102382,602.4856202696594" stroke="#ccc" stroke-width="0.5"/><path transform="translate(0,0)" d="M544.2652364350943,587.208338835089L539.227451890247,623.7554223335202" stroke="#ccc" stroke-width="0.5"/><path transform="translate(0,0)" d="M544.2652364350943,587.208338835089L553.3801457121438,602.7418985178077" stroke="#ccc" stroke-width="0.5"/><path transform="translate(0,0)" d="M544.2652364350943,587.208338835089L567.4753845994221,619.1582323532217" stroke="#ccc" stroke-width="0.5"/><path transform="translate(0,0)" d="M544.2652364350943,587.208338835089L428.2212766006346,621.6941582779494" stroke="#ccc" stroke-width="0.5"/><path transform="translate(0,0)" d="M544.2652364350943,587.208338835089L562.522714076378,593.0525699726384" stroke="#ccc" stroke-width="0.5"/><path transform="translate(0,0)" d="M544.2652364350943,587.208338835089L531.8150504532589,582.4408715546958" stroke="#ccc" stroke-width="0.5"/><path transform="translate(0,0)" d="M544.2652364350943,587.208338835089L557.3994765174299,580.7513781760306" stroke="#ccc" stroke-width="0.5"/><path transform="translate(0,0)" d="M544.2652364350943,587.208338835089L540.2072020659493,604.7275518914881" stroke="#ccc" stroke-width="0.5"/><path transform="translate(0,0)" d="M544.2652364350943,587.208338835089L530.4088152444222,595.6939960751854" stroke="#ccc" stroke-width="0.5"/><path transform="translate(0,0)" d="M660.772182470275,388.2552186603051L657.2512540490701,373.45110965547576" stroke="#ccc" stroke-width="0.5"/><path transform="translate(0,0)" d="M660.772182470275,388.2552186603051L680.2837440751042,381.4260108203049" stroke="#ccc" stroke-width="0.5"/><path transform="translate(0,0)" d="M660.772182470275,388.2552186603051L675.936215431277,394.0224298270754" stroke="#ccc" stroke-width="0.5"/><path transform="translate(0,0)" d="M660.772182470275,388.2552186603051L670.5316748634234,372.3451149439593" stroke="#ccc" stroke-width="0.5"/><path transform="translate(0,0)" d="M548.1223058912167,571.183854919072L561.7713938001111,564.8738254931554" stroke="#ccc" stroke-width="0.5"/><path transform="translate(0,0)" d="M548.1223058912167,571.183854919072L549.8151427678636,557.9607200515263" stroke="#ccc" stroke-width="0.5"/><path transform="translate(0,0)" d="M548.1223058912167,571.183854919072L535.4481953993858,567.050120859256" stroke="#ccc" stroke-width="0.5"/><path transform="translate(0,0)" d="M585.6599132102382,602.4856202696594L601.2229746949105,594.3708025907813" stroke="#ccc" stroke-width="0.5"/><path transform="translate(0,0)" d="M585.6599132102382,602.4856202696594L594.9006021600892,620.2631601250176" stroke="#ccc" stroke-width="0.5"/><path transform="translate(0,0)" d="M585.6599132102382,602.4856202696594L598.0693859474352,607.3188508419115" stroke="#ccc" stroke-width="0.5"/><path transform="translate(0,0)" d="M585.6599132102382,602.4856202696594L610.8566097823482,603.5819579438945" stroke="#ccc" stroke-width="0.5"/><path transform="translate(0,0)" d="M585.6599132102382,602.4856202696594L607.6938459992404,616.5283165769449" stroke="#ccc" stroke-width="0.5"/><path transform="translate(0,0)" d="M539.227451890247,623.7554223335202L535.1500373179138,641.5978734269453" stroke="#ccc" stroke-width="0.5"/><path transform="translate(0,0)" d="M539.227451890247,623.7554223335202L547.9914953460043,638.0297305300193" stroke="#ccc" stroke-width="0.5"/><path transform="translate(0,0)" d="M539.227451890247,623.7554223335202L525.8278005167406,632.0720677203567" stroke="#ccc" stroke-width="0.5"/><path transform="translate(0,0)" d="M567.4753845994221,619.1582323532217L580.0981217271018,634.851120724884" stroke="#ccc" stroke-width="0.5"/><path transform="translate(0,0)" d="M567.4753845994221,619.1582323532217L566.8002582074193,635.7400952973882" stroke="#ccc" stroke-width="0.5"/><path transform="translate(0,0)" d="M567.4753845994221,619.1582323532217L581.6418021244257,621.6138374695904" stroke="#ccc" stroke-width="0.5"/><path transform="translate(0,0)" d="M428.2212766006346,621.6941582779494L439.5017577922074,641.6696208665924" stroke="#ccc" stroke-width="0.5"/><path transform="translate(0,0)" d="M428.2212766006346,621.6941582779494L442.19216243494895,628.6224421173872" stroke="#ccc" stroke-width="0.5"/><path transform="translate(0,0)" d="M428.2212766006346,621.6941582779494L440.01037651042054,615.4790636662426" stroke="#ccc" stroke-width="0.5"/><path transform="translate(0,0)" d="M428.2212766006346,621.6941582779494L427.77729061352585,648.2956215083474" stroke="#ccc" stroke-width="0.5"/><path transform="translate(0,0)" d="M428.2212766006346,621.6941582779494L440.21630802592426,602.1561727998342" stroke="#ccc" stroke-width="0.5"/><path transform="translate(0,0)" d="M428.2212766006346,621.6941582779494L428.4549602598193,608.4028718311505" stroke="#ccc" stroke-width="0.5"/><path transform="translate(0,0)" d="M428.2212766006346,621.6941582779494L427.98213203541565,634.9865787057926" stroke="#ccc" stroke-width="0.5"/><path transform="translate(0,0)" d="M428.2212766006346,621.6941582779494L416.792951410002,614.8303451100563" stroke="#ccc" stroke-width="0.5"/><path transform="translate(0,0)" d="M428.2212766006346,621.6941582779494L416.33439330776196,641.4621799224509" stroke="#ccc" stroke-width="0.5"/><path transform="translate(0,0)" d="M428.2212766006346,621.6941582779494L416.55517853851484,628.1404880987848" stroke="#ccc" stroke-width="0.5"/><path transform="translate(0,0)" d="M428.2212766006346,621.6941582779494L428.7069502792186,595.0945990850596" stroke="#ccc" stroke-width="0.5"/><path transform="translate(0,0)" d="M428.2212766006346,621.6941582779494L405.1296523641547,621.282870963523" stroke="#ccc" stroke-width="0.5"/><path transform="translate(0,0)" d="M428.2212766006346,621.6941582779494L417.03679815114333,601.5187512132626" stroke="#ccc" stroke-width="0.5"/><path transform="translate(0,0)" d="M428.2212766006346,621.6941582779494L404.9077691053699,634.6000924663936" stroke="#ccc" stroke-width="0.5"/><path transform="translate(0,0)" d="M428.2212766006346,621.6941582779494L405.3774949394956,607.967689229768" stroke="#ccc" stroke-width="0.5"/></g><g class="mark-symbol role-mark nodes" role="graphics-symbol" aria-roledescription="symbol mark container"><path transform="translate(571.9960222177333,382.9090717739769)" d="M5.657,0A5.657,5.657,0,1,1,-5.657,0A5.657,5.657,0,1,1,5.657,0" fill="#1f77b4" stroke="white"/><path transform="translate(496.58360235227275,410.5445934970215)" d="M5.657,0A5.657,5.657,0,1,1,-5.657,0A5.657,5.657,0,1,1,5.657,0" fill="#1f77b4" stroke="white"/><path transform="translate(742.0188782925276,354.88429345825466)" d="M5.657,0A5.657,5.657,0,1,1,-5.657,0A5.657,5.657,0,1,1,5.657,0" fill="#1f77b4" stroke="white"/><path transform="translate(618.5407895074983,414.7502217703855)" d="M5.657,0A5.657,5.657,0,1,1,-5.657,0A5.657,5.657,0,1,1,5.657,0" fill="#1f77b4" stroke="white"/><path transform="translate(587.5577301210197,335.40859203999753)" d="M5.657,0A5.657,5.657,0,1,1,-5.657,0A5.657,5.657,0,1,1,5.657,0" fill="#1f77b4" stroke="white"/><path transform="translate(586.4519137945083,370.79052501278886)" d="M5.657,0A5.657,5.657,0,1,1,-5.657,0A5.657,5.657,0,1,1,5.657,0" fill="#1f77b4" stroke="white"/><path transform="translate(518.4898096555163,501.6389815722723)" d="M5.657,0A5.657,5.657,0,1,1,-5.657,0A5.657,5.657,0,1,1,5.657,0" fill="#1f77b4" stroke="white"/><path transform="translate(432.287998484916,223.10313060808164)" d="M5.657,0A5.657,5.657,0,1,1,-5.657,0A5.657,5.657,0,1,1,5.657,0" fill="#1f77b4" stroke="white"/><path transform="translate(694.1879555095385,437.8934151281282)" d="M5.657,0A5.657,5.657,0,1,1,-5.657,0A5.657,5.657,0,1,1,5.657,0" fill="#1f77b4" stroke="white"/><path transform="translate(483.72957889859356,407.04072659308366)" d="M5.657,0A5.657,5.657,0,1,1,-5.657,0A5.657,5.657,0,1,1,5.657,0" fill="#1f77b4" stroke="white"/><path transform="translate(571.4012785776604,426.49387587774817)" d="M5.657,0A5.657,5.657,0,1,1,-5.657,0A5.657,5.657,0,1,1,5.657,0" fill="#1f77b4" stroke="white"/><path transform="translate(508.27506521734665,451.4507048929306)" d="M5.657,0A5.657,5.657,0,1,1,-5.657,0A5.657,5.657,0,1,1,5.657,0" fill="#1f77b4" stroke="white"/><path transform="translate(432.0646112613652,419.81308317548)" d="M5.657,0A5.657,5.657,0,1,1,-5.657,0A5.657,5.657,0,1,1,5.657,0" fill="#1f77b4" stroke="white"/><path transform="translate(515.8544841940515,425.71739838888243)" d="M5.657,0A5.657,5.657,0,1,1,-5.657,0A5.657,5.657,0,1,1,5.657,0" fill="#1f77b4" stroke="white"/><path transform="translate(521.7386978059415,447.0472045743911)" d="M5.657,0A5.657,5.657,0,1,1,-5.657,0A5.657,5.657,0,1,1,5.657,0" fill="#1f77b4" stroke="white"/><path transform="translate(498.6271177724847,464.2180440214231)" d="M5.657,0A5.657,5.657,0,1,1,-5.657,0A5.657,5.657,0,1,1,5.657,0" fill="#1f77b4" stroke="white"/><path transform="translate(522.6783414146056,460.34241585685464)" d="M5.657,0A5.657,5.657,0,1,1,-5.657,0A5.657,5.657,0,1,1,5.657,0" fill="#1f77b4" stroke="white"/><path transform="translate(511.5133983079674,467.62415838696734)" d="M5.657,0A5.657,5.657,0,1,1,-5.657,0A5.657,5.657,0,1,1,5.657,0" fill="#1f77b4" stroke="white"/><path transform="translate(418.75349812277136,420.32714177168293)" d="M5.657,0A5.657,5.657,0,1,1,-5.657,0A5.657,5.657,0,1,1,5.657,0" fill="#1f77b4" stroke="white"/><path transform="translate(418.08432548071545,407.0170269228337)" d="M5.657,0A5.657,5.657,0,1,1,-5.657,0A5.657,5.657,0,1,1,5.657,0" fill="#1f77b4" stroke="white"/><path transform="translate(406.8963958437362,414.2512346005108)" d="M5.657,0A5.657,5.657,0,1,1,-5.657,0A5.657,5.657,0,1,1,5.657,0" fill="#1f77b4" stroke="white"/><path transform="translate(407.56733859806815,427.5608852154277)" d="M5.657,0A5.657,5.657,0,1,1,-5.657,0A5.657,5.657,0,1,1,5.657,0" fill="#1f77b4" stroke="white"/><path transform="translate(419.4269860397145,433.6374793084004)" d="M5.657,0A5.657,5.657,0,1,1,-5.657,0A5.657,5.657,0,1,1,5.657,0" fill="#1f77b4" stroke="white"/><path transform="translate(529.5440379223655,431.7306538563473)" d="M5.657,0A5.657,5.657,0,1,1,-5.657,0A5.657,5.657,0,1,1,5.657,0" fill="#1f77b4" stroke="white"/><path transform="translate(752.7117877610559,362.83073773487314)" d="M5.657,0A5.657,5.657,0,1,1,-5.657,0A5.657,5.657,0,1,1,5.657,0" fill="#1f77b4" stroke="white"/><path transform="translate(743.5680582111535,341.592476300639)" d="M5.657,0A5.657,5.657,0,1,1,-5.657,0A5.657,5.657,0,1,1,5.657,0" fill="#1f77b4" stroke="white"/><path transform="translate(828.4261238252154,359.8705586578724)" d="M5.657,0A5.657,5.657,0,1,1,-5.657,0A5.657,5.657,0,1,1,5.657,0" fill="#1f77b4" stroke="white"/><path transform="translate(764.9376019565456,357.5391772938394)" d="M5.657,0A5.657,5.657,0,1,1,-5.657,0A5.657,5.657,0,1,1,5.657,0" fill="#1f77b4" stroke="white"/><path transform="translate(754.2475827903012,349.58301197807674)" d="M5.657,0A5.657,5.657,0,1,1,-5.657,0A5.657,5.657,0,1,1,5.657,0" fill="#1f77b4" stroke="white"/><path transform="translate(729.7975388918913,360.20249711753814)" d="M5.657,0A5.657,5.657,0,1,1,-5.657,0A5.657,5.657,0,1,1,5.657,0" fill="#1f77b4" stroke="white"/><path transform="translate(751.1997425475688,376.0731517842689)" d="M5.657,0A5.657,5.657,0,1,1,-5.657,0A5.657,5.657,0,1,1,5.657,0" fill="#1f77b4" stroke="white"/><path transform="translate(755.8041695282899,336.3451361880558)" d="M5.657,0A5.657,5.657,0,1,1,-5.657,0A5.657,5.657,0,1,1,5.657,0" fill="#1f77b4" stroke="white"/><path transform="translate(763.4170974000889,370.76502845099435)" d="M5.657,0A5.657,5.657,0,1,1,-5.657,0A5.657,5.657,0,1,1,5.657,0" fill="#1f77b4" stroke="white"/><path transform="translate(731.346096369477,346.89590880829894)" d="M5.657,0A5.657,5.657,0,1,1,-5.657,0A5.657,5.657,0,1,1,5.657,0" fill="#1f77b4" stroke="white"/><path transform="translate(766.481583558073,344.31305567526596)" d="M5.657,0A5.657,5.657,0,1,1,-5.657,0A5.657,5.657,0,1,1,5.657,0" fill="#1f77b4" stroke="white"/><path transform="translate(740.4922336292623,368.15214133530753)" d="M5.657,0A5.657,5.657,0,1,1,-5.657,0A5.657,5.657,0,1,1,5.657,0" fill="#1f77b4" stroke="white"/><path transform="translate(841.125620615461,355.82564818658705)" d="M5.657,0A5.657,5.657,0,1,1,-5.657,0A5.657,5.657,0,1,1,5.657,0" fill="#1f77b4" stroke="white"/><path transform="translate(849.3896755860981,366.2831783359056)" d="M5.657,0A5.657,5.657,0,1,1,-5.657,0A5.657,5.657,0,1,1,5.657,0" fill="#1f77b4" stroke="white"/><path transform="translate(824.3972043916614,375.44495112748507)" d="M5.657,0A5.657,5.657,0,1,1,-5.657,0A5.657,5.657,0,1,1,5.657,0" fill="#1f77b4" stroke="white"/><path transform="translate(832.8890956221908,345.3428488527431)" d="M5.657,0A5.657,5.657,0,1,1,-5.657,0A5.657,5.657,0,1,1,5.657,0" fill="#1f77b4" stroke="white"/><path transform="translate(836.6952351438853,370.31594987223605)" d="M5.657,0A5.657,5.657,0,1,1,-5.657,0A5.657,5.657,0,1,1,5.657,0" fill="#1f77b4" stroke="white"/><path transform="translate(846.0688071781864,343.4472134640918)" d="M5.657,0A5.657,5.657,0,1,1,-5.657,0A5.657,5.657,0,1,1,5.657,0" fill="#1f77b4" stroke="white"/><path transform="translate(854.3128687823789,353.91387032132286)" d="M5.657,0A5.657,5.657,0,1,1,-5.657,0A5.657,5.657,0,1,1,5.657,0" fill="#1f77b4" stroke="white"/><path transform="translate(846.5276591572751,379.295429695457)" d="M5.657,0A5.657,5.657,0,1,1,-5.657,0A5.657,5.657,0,1,1,5.657,0" fill="#1f77b4" stroke="white"/><path transform="translate(820.1949172110569,349.3880103129311)" d="M5.657,0A5.657,5.657,0,1,1,-5.657,0A5.657,5.657,0,1,1,5.657,0" fill="#1f77b4" stroke="white"/><path transform="translate(648.9172525923644,457.694361078051)" d="M5.657,0A5.657,5.657,0,1,1,-5.657,0A5.657,5.657,0,1,1,5.657,0" fill="#1f77b4" stroke="white"/><path transform="translate(640.4230981503046,429.9444664461624)" d="M5.657,0A5.657,5.657,0,1,1,-5.657,0A5.657,5.657,0,1,1,5.657,0" fill="#1f77b4" stroke="white"/><path transform="translate(630.5978942109167,409.07186301200716)" d="M5.657,0A5.657,5.657,0,1,1,-5.657,0A5.657,5.657,0,1,1,5.657,0" fill="#1f77b4" stroke="white"/><path transform="translate(619.6594862095147,401.4894948700155)" d="M5.657,0A5.657,5.657,0,1,1,-5.657,0A5.657,5.657,0,1,1,5.657,0" fill="#1f77b4" stroke="white"/><path transform="translate(606.3615349995479,435.40480765868165)" d="M5.657,0A5.657,5.657,0,1,1,-5.657,0A5.657,5.657,0,1,1,5.657,0" fill="#1f77b4" stroke="white"/><path transform="translate(628.3706087507843,435.6222290790838)" d="M5.657,0A5.657,5.657,0,1,1,-5.657,0A5.657,5.657,0,1,1,5.657,0" fill="#1f77b4" stroke="white"/><path transform="translate(607.731088332321,395.5550766682593)" d="M5.657,0A5.657,5.657,0,1,1,-5.657,0A5.657,5.657,0,1,1,5.657,0" fill="#1f77b4" stroke="white"/><path transform="translate(663.9761859111856,454.4439781747858)" d="M5.657,0A5.657,5.657,0,1,1,-5.657,0A5.657,5.657,0,1,1,5.657,0" fill="#1f77b4" stroke="white"/><path transform="translate(650.6326035724004,470.9144660785215)" d="M5.657,0A5.657,5.657,0,1,1,-5.657,0A5.657,5.657,0,1,1,5.657,0" fill="#1f77b4" stroke="white"/><path transform="translate(663.5855381410415,467.76387790784594)" d="M5.657,0A5.657,5.657,0,1,1,-5.657,0A5.657,5.657,0,1,1,5.657,0" fill="#1f77b4" stroke="white"/><path transform="translate(659.8293987373643,480.5475368450611)" d="M5.657,0A5.657,5.657,0,1,1,-5.657,0A5.657,5.657,0,1,1,5.657,0" fill="#1f77b4" stroke="white"/><path transform="translate(637.4030846657009,469.33388000662717)" d="M5.657,0A5.657,5.657,0,1,1,-5.657,0A5.657,5.657,0,1,1,5.657,0" fill="#1f77b4" stroke="white"/><path transform="translate(597.1824220478659,318.1843571398355)" d="M5.657,0A5.657,5.657,0,1,1,-5.657,0A5.657,5.657,0,1,1,5.657,0" fill="#1f77b4" stroke="white"/><path transform="translate(575.5855349019402,327.2641917864522)" d="M5.657,0A5.657,5.657,0,1,1,-5.657,0A5.657,5.657,0,1,1,5.657,0" fill="#1f77b4" stroke="white"/><path transform="translate(583.9231375557533,316.86624019108035)" d="M5.657,0A5.657,5.657,0,1,1,-5.657,0A5.657,5.657,0,1,1,5.657,0" fill="#1f77b4" stroke="white"/><path transform="translate(602.5633716740548,330.3757870811581)" d="M5.657,0A5.657,5.657,0,1,1,-5.657,0A5.657,5.657,0,1,1,5.657,0" fill="#1f77b4" stroke="white"/><path transform="translate(600.0658492720571,374.1929825924037)" d="M5.657,0A5.657,5.657,0,1,1,-5.657,0A5.657,5.657,0,1,1,5.657,0" fill="#1f77b4" stroke="white"/><path transform="translate(495.48026791262265,508.20166886049407)" d="M5.657,0A5.657,5.657,0,1,1,-5.657,0A5.657,5.657,0,1,1,5.657,0" fill="#1f77b4" stroke="white"/><path transform="translate(525.0116611190123,527.4548244491486)" d="M5.657,0A5.657,5.657,0,1,1,-5.657,0A5.657,5.657,0,1,1,5.657,0" fill="#1f77b4" stroke="white"/><path transform="translate(508.40056966316286,511.4348835386557)" d="M5.657,0A5.657,5.657,0,1,1,-5.657,0A5.657,5.657,0,1,1,5.657,0" fill="#1f77b4" stroke="white"/><path transform="translate(504.746990186848,498.62469115936096)" d="M5.657,0A5.657,5.657,0,1,1,-5.657,0A5.657,5.657,0,1,1,5.657,0" fill="#1f77b4" stroke="white"/><path transform="translate(521.3227352198559,514.6584402006933)" d="M5.657,0A5.657,5.657,0,1,1,-5.657,0A5.657,5.657,0,1,1,5.657,0" fill="#1f77b4" stroke="white"/><path transform="translate(499.15250449570175,521.0135767716177)" d="M5.657,0A5.657,5.657,0,1,1,-5.657,0A5.657,5.657,0,1,1,5.657,0" fill="#1f77b4" stroke="white"/><path transform="translate(534.2611540959416,517.821183389839)" d="M5.657,0A5.657,5.657,0,1,1,-5.657,0A5.657,5.657,0,1,1,5.657,0" fill="#1f77b4" stroke="white"/><path transform="translate(512.0785913649622,524.2468994028104)" d="M5.657,0A5.657,5.657,0,1,1,-5.657,0A5.657,5.657,0,1,1,5.657,0" fill="#1f77b4" stroke="white"/><path transform="translate(416.6912237780946,240.1189097099128)" d="M5.657,0A5.657,5.657,0,1,1,-5.657,0A5.657,5.657,0,1,1,5.657,0" fill="#1f77b4" stroke="white"/><path transform="translate(448.97305321838917,254.05510416719846)" d="M5.657,0A5.657,5.657,0,1,1,-5.657,0A5.657,5.657,0,1,1,5.657,0" fill="#1f77b4" stroke="white"/><path transform="translate(429.3831752841045,236.08682033838394)" d="M5.657,0A5.657,5.657,0,1,1,-5.657,0A5.657,5.657,0,1,1,5.657,0" fill="#1f77b4" stroke="white"/><path transform="translate(406.8836854999286,231.12571653994408)" d="M5.657,0A5.657,5.657,0,1,1,-5.657,0A5.657,5.657,0,1,1,5.657,0" fill="#1f77b4" stroke="white"/><path transform="translate(447.87857062944516,206.11584501867296)" d="M5.657,0A5.657,5.657,0,1,1,-5.657,0A5.657,5.657,0,1,1,5.657,0" fill="#1f77b4" stroke="white"/><path transform="translate(451.8783636372624,241.05816473227276)" d="M5.657,0A5.657,5.657,0,1,1,-5.657,0A5.657,5.657,0,1,1,5.657,0" fill="#1f77b4" stroke="white"/><path transform="translate(444.9787248543776,219.08465626746155)" d="M5.657,0A5.657,5.657,0,1,1,-5.657,0A5.657,5.657,0,1,1,5.657,0" fill="#1f77b4" stroke="white"/><path transform="translate(461.66652243982696,250.03887018350756)" d="M5.657,0A5.657,5.657,0,1,1,-5.657,0A5.657,5.657,0,1,1,5.657,0" fill="#1f77b4" stroke="white"/><path transform="translate(467.4956497183353,224.0923170298705)" d="M5.657,0A5.657,5.657,0,1,1,-5.657,0A5.657,5.657,0,1,1,5.657,0" fill="#1f77b4" stroke="white"/><path transform="translate(457.66515490395426,215.10344062440393)" d="M5.657,0A5.657,5.657,0,1,1,-5.657,0A5.657,5.657,0,1,1,5.657,0" fill="#1f77b4" stroke="white"/><path transform="translate(470.3732841726374,211.11232072743138)" d="M5.657,0A5.657,5.657,0,1,1,-5.657,0A5.657,5.657,0,1,1,5.657,0" fill="#1f77b4" stroke="white"/><path transform="translate(460.57649775221194,202.12286397434926)" d="M5.657,0A5.657,5.657,0,1,1,-5.657,0A5.657,5.657,0,1,1,5.657,0" fill="#1f77b4" stroke="white"/><path transform="translate(450.77404605835926,193.14293631111605)" d="M5.657,0A5.657,5.657,0,1,1,-5.657,0A5.657,5.657,0,1,1,5.657,0" fill="#1f77b4" stroke="white"/><path transform="translate(419.5868573412659,227.12114218621474)" d="M5.657,0A5.657,5.657,0,1,1,-5.657,0A5.657,5.657,0,1,1,5.657,0" fill="#1f77b4" stroke="white"/><path transform="translate(464.58426492196264,237.07129758055152)" d="M5.657,0A5.657,5.657,0,1,1,-5.657,0A5.657,5.657,0,1,1,5.657,0" fill="#1f77b4" stroke="white"/><path transform="translate(440.9560163070788,184.15348062556478)" d="M5.657,0A5.657,5.657,0,1,1,-5.657,0A5.657,5.657,0,1,1,5.657,0" fill="#1f77b4" stroke="white"/><path transform="translate(426.51004983629866,249.09753896465844)" d="M5.657,0A5.657,5.657,0,1,1,-5.657,0A5.657,5.657,0,1,1,5.657,0" fill="#1f77b4" stroke="white"/><path transform="translate(428.2607345692232,188.14592007694787)" d="M5.657,0A5.657,5.657,0,1,1,-5.657,0A5.657,5.657,0,1,1,5.657,0" fill="#1f77b4" stroke="white"/><path transform="translate(505.3817386175989,105.44436823047126)" d="M5.657,0A5.657,5.657,0,1,1,-5.657,0A5.657,5.657,0,1,1,5.657,0" fill="#1f77b4" stroke="white"/><path transform="translate(454.77573108803165,228.07793802874454)" d="M5.657,0A5.657,5.657,0,1,1,-5.657,0A5.657,5.657,0,1,1,5.657,0" fill="#1f77b4" stroke="white"/><path transform="translate(439.1964773905265,245.07205908271484)" d="M5.657,0A5.657,5.657,0,1,1,-5.657,0A5.657,5.657,0,1,1,5.657,0" fill="#1f77b4" stroke="white"/><path transform="translate(415.56202457340237,192.1552112172128)" d="M5.657,0A5.657,5.657,0,1,1,-5.657,0A5.657,5.657,0,1,1,5.657,0" fill="#1f77b4" stroke="white"/><path transform="translate(409.76184323633333,218.13194978960638)" d="M5.657,0A5.657,5.657,0,1,1,-5.657,0A5.657,5.657,0,1,1,5.657,0" fill="#1f77b4" stroke="white"/><path transform="translate(435.1900095898601,210.140617807502)" d="M5.657,0A5.657,5.657,0,1,1,-5.657,0A5.657,5.657,0,1,1,5.657,0" fill="#1f77b4" stroke="white"/><path transform="translate(425.3718723311186,201.13003088930506)" d="M5.657,0A5.657,5.657,0,1,1,-5.657,0A5.657,5.657,0,1,1,5.657,0" fill="#1f77b4" stroke="white"/><path transform="translate(442.07545979036524,232.07240362919626)" d="M5.657,0A5.657,5.657,0,1,1,-5.657,0A5.657,5.657,0,1,1,5.657,0" fill="#1f77b4" stroke="white"/><path transform="translate(422.46919990534616,214.1286752448755)" d="M5.657,0A5.657,5.657,0,1,1,-5.657,0A5.657,5.657,0,1,1,5.657,0" fill="#1f77b4" stroke="white"/><path transform="translate(438.07234330325457,197.14143588385994)" d="M5.657,0A5.657,5.657,0,1,1,-5.657,0A5.657,5.657,0,1,1,5.657,0" fill="#1f77b4" stroke="white"/><path transform="translate(412.65680927060646,205.13286879487634)" d="M5.657,0A5.657,5.657,0,1,1,-5.657,0A5.657,5.657,0,1,1,5.657,0" fill="#1f77b4" stroke="white"/><path transform="translate(475.0611017685538,79.68046216887599)" d="M5.657,0A5.657,5.657,0,1,1,-5.657,0A5.657,5.657,0,1,1,5.657,0" fill="#1f77b4" stroke="white"/><path transform="translate(530.000345839368,95.35196314681903)" d="M5.657,0A5.657,5.657,0,1,1,-5.657,0A5.657,5.657,0,1,1,5.657,0" fill="#1f77b4" stroke="white"/><path transform="translate(526.4143911784439,121.74337092099223)" d="M5.657,0A5.657,5.657,0,1,1,-5.657,0A5.657,5.657,0,1,1,5.657,0" fill="#1f77b4" stroke="white"/><path transform="translate(501.7704787627179,131.81503555895168)" d="M5.657,0A5.657,5.657,0,1,1,-5.657,0A5.657,5.657,0,1,1,5.657,0" fill="#1f77b4" stroke="white"/><path transform="translate(484.4215506441784,89.07984194948625)" d="M5.657,0A5.657,5.657,0,1,1,-5.657,0A5.657,5.657,0,1,1,5.657,0" fill="#1f77b4" stroke="white"/><path transform="translate(493.089915231137,110.45079873906796)" d="M5.657,0A5.657,5.657,0,1,1,-5.657,0A5.657,5.657,0,1,1,5.657,0" fill="#1f77b4" stroke="white"/><path transform="translate(521.2091984847377,73.98984262547876)" d="M5.657,0A5.657,5.657,0,1,1,-5.657,0A5.657,5.657,0,1,1,5.657,0" fill="#1f77b4" stroke="white"/><path transform="translate(462.7462056886358,84.693862867277)" d="M5.657,0A5.657,5.657,0,1,1,-5.657,0A5.657,5.657,0,1,1,5.657,0" fill="#1f77b4" stroke="white"/><path transform="translate(531.7339748541557,82.14990026410167)" d="M5.657,0A5.657,5.657,0,1,1,-5.657,0A5.657,5.657,0,1,1,5.657,0" fill="#1f77b4" stroke="white"/><path transform="translate(514.0924611493124,126.77901401260534)" d="M5.657,0A5.657,5.657,0,1,1,-5.657,0A5.657,5.657,0,1,1,5.657,0" fill="#1f77b4" stroke="white"/><path transform="translate(476.9645399420246,66.50510806805943)" d="M5.657,0A5.657,5.657,0,1,1,-5.657,0A5.657,5.657,0,1,1,5.657,0" fill="#1f77b4" stroke="white"/><path transform="translate(507.18996664018374,92.27195420894525)" d="M5.657,0A5.657,5.657,0,1,1,-5.657,0A5.657,5.657,0,1,1,5.657,0" fill="#1f77b4" stroke="white"/><path transform="translate(491.2666315856688,123.63105412807538)" d="M5.657,0A5.657,5.657,0,1,1,-5.657,0A5.657,5.657,0,1,1,5.657,0" fill="#1f77b4" stroke="white"/><path transform="translate(496.7006261366248,84.15010752389837)" d="M5.657,0A5.657,5.657,0,1,1,-5.657,0A5.657,5.657,0,1,1,5.657,0" fill="#1f77b4" stroke="white"/><path transform="translate(472.1679646460006,94.06107529312817)" d="M5.657,0A5.657,5.657,0,1,1,-5.657,0A5.657,5.657,0,1,1,5.657,0" fill="#1f77b4" stroke="white"/><path transform="translate(499.66473957389144,69.53409510936888)" d="M5.657,0A5.657,5.657,0,1,1,-5.657,0A5.657,5.657,0,1,1,5.657,0" fill="#1f77b4" stroke="white"/><path transform="translate(528.2211167077862,108.54502606657601)" d="M5.657,0A5.657,5.657,0,1,1,-5.657,0A5.657,5.657,0,1,1,5.657,0" fill="#1f77b4" stroke="white"/><path transform="translate(494.909099223679,97.28416379903231)" d="M5.657,0A5.657,5.657,0,1,1,-5.657,0A5.657,5.657,0,1,1,5.657,0" fill="#1f77b4" stroke="white"/><path transform="translate(487.393204200631,74.69197991690145)" d="M5.657,0A5.657,5.657,0,1,1,-5.657,0A5.657,5.657,0,1,1,5.657,0" fill="#1f77b4" stroke="white"/><path transform="translate(459.83761015043876,99.03724398952322)" d="M5.657,0A5.657,5.657,0,1,1,-5.657,0A5.657,5.657,0,1,1,5.657,0" fill="#1f77b4" stroke="white"/><path transform="translate(468.43451841306035,120.46028450143108)" d="M5.657,0A5.657,5.657,0,1,1,-5.657,0A5.657,5.657,0,1,1,5.657,0" fill="#1f77b4" stroke="white"/><path transform="translate(517.6852870175413,100.39256448344025)" d="M5.657,0A5.657,5.657,0,1,1,-5.657,0A5.657,5.657,0,1,1,5.657,0" fill="#1f77b4" stroke="white"/><path transform="translate(480.7800075620233,115.47065103569653)" d="M5.657,0A5.657,5.657,0,1,1,-5.657,0A5.657,5.657,0,1,1,5.657,0" fill="#1f77b4" stroke="white"/><path transform="translate(457.97683285789026,112.23182256518105)" d="M5.657,0A5.657,5.657,0,1,1,-5.657,0A5.657,5.657,0,1,1,5.657,0" fill="#1f77b4" stroke="white"/><path transform="translate(470.29031544968734,107.26244745091617)" d="M5.657,0A5.657,5.657,0,1,1,-5.657,0A5.657,5.657,0,1,1,5.657,0" fill="#1f77b4" stroke="white"/><path transform="translate(482.6166375861837,102.27159806897728)" d="M5.657,0A5.657,5.657,0,1,1,-5.657,0A5.657,5.657,0,1,1,5.657,0" fill="#1f77b4" stroke="white"/><path transform="translate(508.95112622856544,79.04683615297118)" d="M5.657,0A5.657,5.657,0,1,1,-5.657,0A5.657,5.657,0,1,1,5.657,0" fill="#1f77b4" stroke="white"/><path transform="translate(489.44168866957284,136.81359250487418)" d="M5.657,0A5.657,5.657,0,1,1,-5.657,0A5.657,5.657,0,1,1,5.657,0" fill="#1f77b4" stroke="white"/><path transform="translate(503.5628634398194,118.62284639933678)" d="M5.657,0A5.657,5.657,0,1,1,-5.657,0A5.657,5.657,0,1,1,5.657,0" fill="#1f77b4" stroke="white"/><path transform="translate(519.4703652693873,87.20949230068224)" d="M5.657,0A5.657,5.657,0,1,1,-5.657,0A5.657,5.657,0,1,1,5.657,0" fill="#1f77b4" stroke="white"/><path transform="translate(478.93174443329997,128.63437569313032)" d="M5.657,0A5.657,5.657,0,1,1,-5.657,0A5.657,5.657,0,1,1,5.657,0" fill="#1f77b4" stroke="white"/><path transform="translate(515.8950592883734,113.58403493978626)" d="M5.657,0A5.657,5.657,0,1,1,-5.657,0A5.657,5.657,0,1,1,5.657,0" fill="#1f77b4" stroke="white"/><path transform="translate(706.7056630704772,442.62747551012984)" d="M5.657,0A5.657,5.657,0,1,1,-5.657,0A5.657,5.657,0,1,1,5.657,0" fill="#1f77b4" stroke="white"/><path transform="translate(692.1681519571957,424.71797245691397)" d="M5.657,0A5.657,5.657,0,1,1,-5.657,0A5.657,5.657,0,1,1,5.657,0" fill="#1f77b4" stroke="white"/><path transform="translate(717.0552069496459,434.2316450297541)" d="M5.657,0A5.657,5.657,0,1,1,-5.657,0A5.657,5.657,0,1,1,5.657,0" fill="#1f77b4" stroke="white"/><path transform="translate(686.0369445355688,459.44976897525527)" d="M5.657,0A5.657,5.657,0,1,1,-5.657,0A5.657,5.657,0,1,1,5.657,0" fill="#1f77b4" stroke="white"/><path transform="translate(683.8518219428476,446.3070879944449)" d="M5.657,0A5.657,5.657,0,1,1,-5.657,0A5.657,5.657,0,1,1,5.657,0" fill="#1f77b4" stroke="white"/><path transform="translate(719.1518500582382,447.3832271578066)" d="M5.657,0A5.657,5.657,0,1,1,-5.657,0A5.657,5.657,0,1,1,5.657,0" fill="#1f77b4" stroke="white"/><path transform="translate(696.371478434155,451.03755441285483)" d="M5.657,0A5.657,5.657,0,1,1,-5.657,0A5.657,5.657,0,1,1,5.657,0" fill="#1f77b4" stroke="white"/><path transform="translate(704.6204335226768,429.4611545028339)" d="M5.657,0A5.657,5.657,0,1,1,-5.657,0A5.657,5.657,0,1,1,5.657,0" fill="#1f77b4" stroke="white"/><path transform="translate(708.8239312472863,455.78559152591777)" d="M5.657,0A5.657,5.657,0,1,1,-5.657,0A5.657,5.657,0,1,1,5.657,0" fill="#1f77b4" stroke="white"/><path transform="translate(698.4880871166636,464.1908686488915)" d="M5.657,0A5.657,5.657,0,1,1,-5.657,0A5.657,5.657,0,1,1,5.657,0" fill="#1f77b4" stroke="white"/><path transform="translate(502.6421424792041,388.2779151340271)" d="M5.657,0A5.657,5.657,0,1,1,-5.657,0A5.657,5.657,0,1,1,5.657,0" fill="#1f77b4" stroke="white"/><path transform="translate(487.10807268545955,419.9081766568254)" d="M5.657,0A5.657,5.657,0,1,1,-5.657,0A5.657,5.657,0,1,1,5.657,0" fill="#1f77b4" stroke="white"/><path transform="translate(506.0362985994273,401.1581511847156)" d="M5.657,0A5.657,5.657,0,1,1,-5.657,0A5.657,5.657,0,1,1,5.657,0" fill="#1f77b4" stroke="white"/><path transform="translate(509.4154313581559,414.04249470281405)" d="M5.657,0A5.657,5.657,0,1,1,-5.657,0A5.657,5.657,0,1,1,5.657,0" fill="#1f77b4" stroke="white"/><path transform="translate(489.89594301104074,432.9229874646761)" d="M5.657,0A5.657,5.657,0,1,1,-5.657,0A5.657,5.657,0,1,1,5.657,0" fill="#1f77b4" stroke="white"/><path transform="translate(476.9387483660666,381.3080646963697)" d="M5.657,0A5.657,5.657,0,1,1,-5.657,0A5.657,5.657,0,1,1,5.657,0" fill="#1f77b4" stroke="white"/><path transform="translate(462.3137909978257,429.9796887233886)" d="M5.657,0A5.657,5.657,0,1,1,-5.657,0A5.657,5.657,0,1,1,5.657,0" fill="#1f77b4" stroke="white"/><path transform="translate(477.0392001619357,429.44011439480994)" d="M5.657,0A5.657,5.657,0,1,1,-5.657,0A5.657,5.657,0,1,1,5.657,0" fill="#1f77b4" stroke="white"/><path transform="translate(480.3282738112348,394.17507129157286)" d="M5.657,0A5.657,5.657,0,1,1,-5.657,0A5.657,5.657,0,1,1,5.657,0" fill="#1f77b4" stroke="white"/><path transform="translate(461.40558332442254,412.9481263775479)" d="M5.657,0A5.657,5.657,0,1,1,-5.657,0A5.657,5.657,0,1,1,5.657,0" fill="#1f77b4" stroke="white"/><path transform="translate(444.6069320960791,395.8892280657629)" d="M5.657,0A5.657,5.657,0,1,1,-5.657,0A5.657,5.657,0,1,1,5.657,0" fill="#1f77b4" stroke="white"/><path transform="translate(499.95295863822446,423.427041197432)" d="M5.657,0A5.657,5.657,0,1,1,-5.657,0A5.657,5.657,0,1,1,5.657,0" fill="#1f77b4" stroke="white"/><path transform="translate(470.8696116496703,403.55327827277245)" d="M5.657,0A5.657,5.657,0,1,1,-5.657,0A5.657,5.657,0,1,1,5.657,0" fill="#1f77b4" stroke="white"/><path transform="translate(501.3513161957065,369.12593169791336)" d="M5.657,0A5.657,5.657,0,1,1,-5.657,0A5.657,5.657,0,1,1,5.657,0" fill="#1f77b4" stroke="white"/><path transform="translate(493.1903872916903,397.67052375763944)" d="M5.657,0A5.657,5.657,0,1,1,-5.657,0A5.657,5.657,0,1,1,5.657,0" fill="#1f77b4" stroke="white"/><path transform="translate(467.4752925267922,390.67636468938105)" d="M5.657,0A5.657,5.657,0,1,1,-5.657,0A5.657,5.657,0,1,1,5.657,0" fill="#1f77b4" stroke="white"/><path transform="translate(489.78925233235634,384.7933819962685)" d="M5.657,0A5.657,5.657,0,1,1,-5.657,0A5.657,5.657,0,1,1,5.657,0" fill="#1f77b4" stroke="white"/><path transform="translate(474.26382857203333,416.4286634562632)" d="M5.657,0A5.657,5.657,0,1,1,-5.657,0A5.657,5.657,0,1,1,5.657,0" fill="#1f77b4" stroke="white"/><path transform="translate(458.02076059218024,400.06324576030323)" d="M5.657,0A5.657,5.657,0,1,1,-5.657,0A5.657,5.657,0,1,1,5.657,0" fill="#1f77b4" stroke="white"/><path transform="translate(457.7742718308819,446.94662608795824)" d="M5.657,0A5.657,5.657,0,1,1,-5.657,0A5.657,5.657,0,1,1,5.657,0" fill="#1f77b4" stroke="white"/><path transform="translate(446.96131567433,439.1521303408134)" d="M5.657,0A5.657,5.657,0,1,1,-5.657,0A5.657,5.657,0,1,1,5.657,0" fill="#1f77b4" stroke="white"/><path transform="translate(434.5349079583666,381.8996147868308)" d="M5.657,0A5.657,5.657,0,1,1,-5.657,0A5.657,5.657,0,1,1,5.657,0" fill="#1f77b4" stroke="white"/><path transform="translate(430.98580989476426,403.6656461740673)" d="M5.657,0A5.657,5.657,0,1,1,-5.657,0A5.657,5.657,0,1,1,5.657,0" fill="#1f77b4" stroke="white"/><path transform="translate(425.371656736089,391.57712617533934)" d="M5.657,0A5.657,5.657,0,1,1,-5.657,0A5.657,5.657,0,1,1,5.657,0" fill="#1f77b4" stroke="white"/><path transform="translate(515.1595321564142,365.81718727125013)" d="M5.657,0A5.657,5.657,0,1,1,-5.657,0A5.657,5.657,0,1,1,5.657,0" fill="#1f77b4" stroke="white"/><path transform="translate(494.61081314758763,357.6312047463554)" d="M5.657,0A5.657,5.657,0,1,1,-5.657,0A5.657,5.657,0,1,1,5.657,0" fill="#1f77b4" stroke="white"/><path transform="translate(499.81831462775096,345.3689795565265)" d="M5.657,0A5.657,5.657,0,1,1,-5.657,0A5.657,5.657,0,1,1,5.657,0" fill="#1f77b4" stroke="white"/><path transform="translate(510.5035302844499,353.3310409561011)" d="M5.657,0A5.657,5.657,0,1,1,-5.657,0A5.657,5.657,0,1,1,5.657,0" fill="#1f77b4" stroke="white"/><path transform="translate(488.02031045071163,369.21252686320025)" d="M5.657,0A5.657,5.657,0,1,1,-5.657,0A5.657,5.657,0,1,1,5.657,0" fill="#1f77b4" stroke="white"/><path transform="translate(655.6855769233603,350.5756044317363)" d="M5.657,0A5.657,5.657,0,1,1,-5.657,0A5.657,5.657,0,1,1,5.657,0" fill="#1f77b4" stroke="white"/><path transform="translate(546.2969535076667,467.65020854702516)" d="M5.657,0A5.657,5.657,0,1,1,-5.657,0A5.657,5.657,0,1,1,5.657,0" fill="#1f77b4" stroke="white"/><path transform="translate(559.0096739852659,385.89696055416096)" d="M5.657,0A5.657,5.657,0,1,1,-5.657,0A5.657,5.657,0,1,1,5.657,0" fill="#1f77b4" stroke="white"/><path transform="translate(544.2652364350943,587.208338835089)" d="M5.657,0A5.657,5.657,0,1,1,-5.657,0A5.657,5.657,0,1,1,5.657,0" fill="#1f77b4" stroke="white"/><path transform="translate(575.3047868739745,413.7461484340613)" d="M5.657,0A5.657,5.657,0,1,1,-5.657,0A5.657,5.657,0,1,1,5.657,0" fill="#1f77b4" stroke="white"/><path transform="translate(485.2488645125071,348.15431682838204)" d="M5.657,0A5.657,5.657,0,1,1,-5.657,0A5.657,5.657,0,1,1,5.657,0" fill="#1f77b4" stroke="white"/><path transform="translate(477.8915560468218,359.28664025280693)" d="M5.657,0A5.657,5.657,0,1,1,-5.657,0A5.657,5.657,0,1,1,5.657,0" fill="#1f77b4" stroke="white"/><path transform="translate(471.9513631057791,347.36300561181525)" d="M5.657,0A5.657,5.657,0,1,1,-5.657,0A5.657,5.657,0,1,1,5.657,0" fill="#1f77b4" stroke="white"/><path transform="translate(464.0163494463465,358.06051921997846)" d="M5.657,0A5.657,5.657,0,1,1,-5.657,0A5.657,5.657,0,1,1,5.657,0" fill="#1f77b4" stroke="white"/><path transform="translate(469.9413335654468,369.9882028312021)" d="M5.657,0A5.657,5.657,0,1,1,-5.657,0A5.657,5.657,0,1,1,5.657,0" fill="#1f77b4" stroke="white"/><path transform="translate(648.1974399267456,328.7238021120364)" d="M5.657,0A5.657,5.657,0,1,1,-5.657,0A5.657,5.657,0,1,1,5.657,0" fill="#1f77b4" stroke="white"/><path transform="translate(658.2289443888708,337.5027350841909)" d="M5.657,0A5.657,5.657,0,1,1,-5.657,0A5.657,5.657,0,1,1,5.657,0" fill="#1f77b4" stroke="white"/><path transform="translate(660.8046782325256,324.44187391367853)" d="M5.657,0A5.657,5.657,0,1,1,-5.657,0A5.657,5.657,0,1,1,5.657,0" fill="#1f77b4" stroke="white"/><path transform="translate(673.434181820504,320.22244704878966)" d="M5.657,0A5.657,5.657,0,1,1,-5.657,0A5.657,5.657,0,1,1,5.657,0" fill="#1f77b4" stroke="white"/><path transform="translate(670.8595052267269,333.2874274563439)" d="M5.657,0A5.657,5.657,0,1,1,-5.657,0A5.657,5.657,0,1,1,5.657,0" fill="#1f77b4" stroke="white"/><path transform="translate(680.9173170909742,342.0471994424047)" d="M5.657,0A5.657,5.657,0,1,1,-5.657,0A5.657,5.657,0,1,1,5.657,0" fill="#1f77b4" stroke="white"/><path transform="translate(678.3729205534411,355.115290735499)" d="M5.657,0A5.657,5.657,0,1,1,-5.657,0A5.657,5.657,0,1,1,5.657,0" fill="#1f77b4" stroke="white"/><path transform="translate(665.772301593479,359.4449925517691)" d="M5.657,0A5.657,5.657,0,1,1,-5.657,0A5.657,5.657,0,1,1,5.657,0" fill="#1f77b4" stroke="white"/><path transform="translate(683.4652474678065,328.9880410269277)" d="M5.657,0A5.657,5.657,0,1,1,-5.657,0A5.657,5.657,0,1,1,5.657,0" fill="#1f77b4" stroke="white"/><path transform="translate(668.322828405069,346.36120008175936)" d="M5.657,0A5.657,5.657,0,1,1,-5.657,0A5.657,5.657,0,1,1,5.657,0" fill="#1f77b4" stroke="white"/><path transform="translate(645.619043864072,341.7926960406871)" d="M5.657,0A5.657,5.657,0,1,1,-5.657,0A5.657,5.657,0,1,1,5.657,0" fill="#1f77b4" stroke="white"/><path transform="translate(629.4905276418493,422.3421894382476)" d="M5.657,0A5.657,5.657,0,1,1,-5.657,0A5.657,5.657,0,1,1,5.657,0" fill="#1f77b4" stroke="white"/><path transform="translate(605.4854479923341,422.10822742509447)" d="M5.657,0A5.657,5.657,0,1,1,-5.657,0A5.657,5.657,0,1,1,5.657,0" fill="#1f77b4" stroke="white"/><path transform="translate(631.7044666247328,395.7963448368983)" d="M5.657,0A5.657,5.657,0,1,1,-5.657,0A5.657,5.657,0,1,1,5.657,0" fill="#1f77b4" stroke="white"/><path transform="translate(641.5394769509794,416.6719169477662)" d="M5.657,0A5.657,5.657,0,1,1,-5.657,0A5.657,5.657,0,1,1,5.657,0" fill="#1f77b4" stroke="white"/><path transform="translate(606.599559165809,408.82640258704635)" d="M5.657,0A5.657,5.657,0,1,1,-5.657,0A5.657,5.657,0,1,1,5.657,0" fill="#1f77b4" stroke="white"/><path transform="translate(660.772182470275,388.2552186603051)" d="M5.657,0A5.657,5.657,0,1,1,-5.657,0A5.657,5.657,0,1,1,5.657,0" fill="#1f77b4" stroke="white"/><path transform="translate(617.4338627249947,428.0170000501705)" d="M5.657,0A5.657,5.657,0,1,1,-5.657,0A5.657,5.657,0,1,1,5.657,0" fill="#1f77b4" stroke="white"/><path transform="translate(620.7500829037359,388.216147907037)" d="M5.657,0A5.657,5.657,0,1,1,-5.657,0A5.657,5.657,0,1,1,5.657,0" fill="#1f77b4" stroke="white"/><path transform="translate(642.644368175192,403.3946077083117)" d="M5.657,0A5.657,5.657,0,1,1,-5.657,0A5.657,5.657,0,1,1,5.657,0" fill="#1f77b4" stroke="white"/><path transform="translate(657.2512540490701,373.45110965547576)" d="M5.657,0A5.657,5.657,0,1,1,-5.657,0A5.657,5.657,0,1,1,5.657,0" fill="#1f77b4" stroke="white"/><path transform="translate(680.2837440751042,381.4260108203049)" d="M5.657,0A5.657,5.657,0,1,1,-5.657,0A5.657,5.657,0,1,1,5.657,0" fill="#1f77b4" stroke="white"/><path transform="translate(675.936215431277,394.0224298270754)" d="M5.657,0A5.657,5.657,0,1,1,-5.657,0A5.657,5.657,0,1,1,5.657,0" fill="#1f77b4" stroke="white"/><path transform="translate(670.5316748634234,372.3451149439593)" d="M5.657,0A5.657,5.657,0,1,1,-5.657,0A5.657,5.657,0,1,1,5.657,0" fill="#1f77b4" stroke="white"/><path transform="translate(558.997168449953,471.70544509890124)" d="M5.657,0A5.657,5.657,0,1,1,-5.657,0A5.657,5.657,0,1,1,5.657,0" fill="#1f77b4" stroke="white"/><path transform="translate(552.0337572276995,483.0695082291265)" d="M5.657,0A5.657,5.657,0,1,1,-5.657,0A5.657,5.657,0,1,1,5.657,0" fill="#1f77b4" stroke="white"/><path transform="translate(530.8750393763602,475.4435262888465)" d="M5.657,0A5.657,5.657,0,1,1,-5.657,0A5.657,5.657,0,1,1,5.657,0" fill="#1f77b4" stroke="white"/><path transform="translate(539.0302136795516,485.98454076881524)" d="M5.657,0A5.657,5.657,0,1,1,-5.657,0A5.657,5.657,0,1,1,5.657,0" fill="#1f77b4" stroke="white"/><path transform="translate(548.7713151233727,374.834115062996)" d="M5.657,0A5.657,5.657,0,1,1,-5.657,0A5.657,5.657,0,1,1,5.657,0" fill="#1f77b4" stroke="white"/><path transform="translate(569.999252811903,369.7356198251917)" d="M5.657,0A5.657,5.657,0,1,1,-5.657,0A5.657,5.657,0,1,1,5.657,0" fill="#1f77b4" stroke="white"/><path transform="translate(557.5999929088803,364.8529945295389)" d="M5.657,0A5.657,5.657,0,1,1,-5.657,0A5.657,5.657,0,1,1,5.657,0" fill="#1f77b4" stroke="white"/><path transform="translate(548.1223058912167,571.183854919072)" d="M5.657,0A5.657,5.657,0,1,1,-5.657,0A5.657,5.657,0,1,1,5.657,0" fill="#1f77b4" stroke="white"/><path transform="translate(585.6599132102382,602.4856202696594)" d="M5.657,0A5.657,5.657,0,1,1,-5.657,0A5.657,5.657,0,1,1,5.657,0" fill="#1f77b4" stroke="white"/><path transform="translate(539.227451890247,623.7554223335202)" d="M5.657,0A5.657,5.657,0,1,1,-5.657,0A5.657,5.657,0,1,1,5.657,0" fill="#1f77b4" stroke="white"/><path transform="translate(553.3801457121438,602.7418985178077)" d="M5.657,0A5.657,5.657,0,1,1,-5.657,0A5.657,5.657,0,1,1,5.657,0" fill="#1f77b4" stroke="white"/><path transform="translate(567.4753845994221,619.1582323532217)" d="M5.657,0A5.657,5.657,0,1,1,-5.657,0A5.657,5.657,0,1,1,5.657,0" fill="#1f77b4" stroke="white"/><path transform="translate(428.2212766006346,621.6941582779494)" d="M5.657,0A5.657,5.657,0,1,1,-5.657,0A5.657,5.657,0,1,1,5.657,0" fill="#1f77b4" stroke="white"/><path transform="translate(562.522714076378,593.0525699726384)" d="M5.657,0A5.657,5.657,0,1,1,-5.657,0A5.657,5.657,0,1,1,5.657,0" fill="#1f77b4" stroke="white"/><path transform="translate(531.8150504532589,582.4408715546958)" d="M5.657,0A5.657,5.657,0,1,1,-5.657,0A5.657,5.657,0,1,1,5.657,0" fill="#1f77b4" stroke="white"/><path transform="translate(557.3994765174299,580.7513781760306)" d="M5.657,0A5.657,5.657,0,1,1,-5.657,0A5.657,5.657,0,1,1,5.657,0" fill="#1f77b4" stroke="white"/><path transform="translate(540.2072020659493,604.7275518914881)" d="M5.657,0A5.657,5.657,0,1,1,-5.657,0A5.657,5.657,0,1,1,5.657,0" fill="#1f77b4" stroke="white"/><path transform="translate(530.4088152444222,595.6939960751854)" d="M5.657,0A5.657,5.657,0,1,1,-5.657,0A5.657,5.657,0,1,1,5.657,0" fill="#1f77b4" stroke="white"/><path transform="translate(561.7713938001111,564.8738254931554)" d="M5.657,0A5.657,5.657,0,1,1,-5.657,0A5.657,5.657,0,1,1,5.657,0" fill="#1f77b4" stroke="white"/><path transform="translate(549.8151427678636,557.9607200515263)" d="M5.657,0A5.657,5.657,0,1,1,-5.657,0A5.657,5.657,0,1,1,5.657,0" fill="#1f77b4" stroke="white"/><path transform="translate(535.4481953993858,567.050120859256)" d="M5.657,0A5.657,5.657,0,1,1,-5.657,0A5.657,5.657,0,1,1,5.657,0" fill="#1f77b4" stroke="white"/><path transform="translate(601.2229746949105,594.3708025907813)" d="M5.657,0A5.657,5.657,0,1,1,-5.657,0A5.657,5.657,0,1,1,5.657,0" fill="#1f77b4" stroke="white"/><path transform="translate(594.9006021600892,620.2631601250176)" d="M5.657,0A5.657,5.657,0,1,1,-5.657,0A5.657,5.657,0,1,1,5.657,0" fill="#1f77b4" stroke="white"/><path transform="translate(598.0693859474352,607.3188508419115)" d="M5.657,0A5.657,5.657,0,1,1,-5.657,0A5.657,5.657,0,1,1,5.657,0" fill="#1f77b4" stroke="white"/><path transform="translate(610.8566097823482,603.5819579438945)" d="M5.657,0A5.657,5.657,0,1,1,-5.657,0A5.657,5.657,0,1,1,5.657,0" fill="#1f77b4" stroke="white"/><path transform="translate(607.6938459992404,616.5283165769449)" d="M5.657,0A5.657,5.657,0,1,1,-5.657,0A5.657,5.657,0,1,1,5.657,0" fill="#1f77b4" stroke="white"/><path transform="translate(535.1500373179138,641.5978734269453)" d="M5.657,0A5.657,5.657,0,1,1,-5.657,0A5.657,5.657,0,1,1,5.657,0" fill="#1f77b4" stroke="white"/><path transform="translate(547.9914953460043,638.0297305300193)" d="M5.657,0A5.657,5.657,0,1,1,-5.657,0A5.657,5.657,0,1,1,5.657,0" fill="#1f77b4" stroke="white"/><path transform="translate(525.8278005167406,632.0720677203567)" d="M5.657,0A5.657,5.657,0,1,1,-5.657,0A5.657,5.657,0,1,1,5.657,0" fill="#1f77b4" stroke="white"/><path transform="translate(580.0981217271018,634.851120724884)" d="M5.657,0A5.657,5.657,0,1,1,-5.657,0A5.657,5.657,0,1,1,5.657,0" fill="#1f77b4" stroke="white"/><path transform="translate(566.8002582074193,635.7400952973882)" d="M5.657,0A5.657,5.657,0,1,1,-5.657,0A5.657,5.657,0,1,1,5.657,0" fill="#1f77b4" stroke="white"/><path transform="translate(581.6418021244257,621.6138374695904)" d="M5.657,0A5.657,5.657,0,1,1,-5.657,0A5.657,5.657,0,1,1,5.657,0" fill="#1f77b4" stroke="white"/><path transform="translate(439.5017577922074,641.6696208665924)" d="M5.657,0A5.657,5.657,0,1,1,-5.657,0A5.657,5.657,0,1,1,5.657,0" fill="#1f77b4" stroke="white"/><path transform="translate(442.19216243494895,628.6224421173872)" d="M5.657,0A5.657,5.657,0,1,1,-5.657,0A5.657,5.657,0,1,1,5.657,0" fill="#1f77b4" stroke="white"/><path transform="translate(440.01037651042054,615.4790636662426)" d="M5.657,0A5.657,5.657,0,1,1,-5.657,0A5.657,5.657,0,1,1,5.657,0" fill="#1f77b4" stroke="white"/><path transform="translate(427.77729061352585,648.2956215083474)" d="M5.657,0A5.657,5.657,0,1,1,-5.657,0A5.657,5.657,0,1,1,5.657,0" fill="#1f77b4" stroke="white"/><path transform="translate(440.21630802592426,602.1561727998342)" d="M5.657,0A5.657,5.657,0,1,1,-5.657,0A5.657,5.657,0,1,1,5.657,0" fill="#1f77b4" stroke="white"/><path transform="translate(428.4549602598193,608.4028718311505)" d="M5.657,0A5.657,5.657,0,1,1,-5.657,0A5.657,5.657,0,1,1,5.657,0" fill="#1f77b4" stroke="white"/><path transform="translate(427.98213203541565,634.9865787057926)" d="M5.657,0A5.657,5.657,0,1,1,-5.657,0A5.657,5.657,0,1,1,5.657,0" fill="#1f77b4" stroke="white"/><path transform="translate(416.792951410002,614.8303451100563)" d="M5.657,0A5.657,5.657,0,1,1,-5.657,0A5.657,5.657,0,1,1,5.657,0" fill="#1f77b4" stroke="white"/><path transform="translate(416.33439330776196,641.4621799224509)" d="M5.657,0A5.657,5.657,0,1,1,-5.657,0A5.657,5.657,0,1,1,5.657,0" fill="#1f77b4" stroke="white"/><path transform="translate(416.55517853851484,628.1404880987848)" d="M5.657,0A5.657,5.657,0,1,1,-5.657,0A5.657,5.657,0,1,1,5.657,0" fill="#1f77b4" stroke="white"/><path transform="translate(428.7069502792186,595.0945990850596)" d="M5.657,0A5.657,5.657,0,1,1,-5.657,0A5.657,5.657,0,1,1,5.657,0" fill="#1f77b4" stroke="white"/><path transform="translate(405.1296523641547,621.282870963523)" d="M5.657,0A5.657,5.657,0,1,1,-5.657,0A5.657,5.657,0,1,1,5.657,0" fill="#1f77b4" stroke="white"/><path transform="translate(417.03679815114333,601.5187512132626)" d="M5.657,0A5.657,5.657,0,1,1,-5.657,0A5.657,5.657,0,1,1,5.657,0" fill="#1f77b4" stroke="white"/><path transform="translate(404.9077691053699,634.6000924663936)" d="M5.657,0A5.657,5.657,0,1,1,-5.657,0A5.657,5.657,0,1,1,5.657,0" fill="#1f77b4" stroke="white"/><path transform="translate(405.3774949394956,607.967689229768)" d="M5.657,0A5.657,5.657,0,1,1,-5.657,0A5.657,5.657,0,1,1,5.657,0" fill="#1f77b4" stroke="white"/></g></g><path class="foreground" aria-hidden="true" d="" display="none"/></g></g></g></svg>